<?xml version="1.0" encoding="utf-8"?>
<!-- Generator: Adobe Illustrator 18.1.0, SVG Export Plug-In . SVG Version: 6.00 Build 0)  -->
<!DOCTYPE svg PUBLIC "-//W3C//DTD SVG 1.1//EN" "http://www.w3.org/Graphics/SVG/1.1/DTD/svg11.dtd">
<svg version="1.1" id="Layer_1" xmlns="http://www.w3.org/2000/svg" xmlns:xlink="http://www.w3.org/1999/xlink" x="0px" y="0px"
	 viewBox="0 0 125 54" enable-background="new 0 0 125 54" xml:space="preserve">
<g>
	<path fill="#2e30bd" d="M35.7,1.4h-7.3c-0.5,0-0.9,0.4-0.9,0.9v19.3c-2.9-2.6-6.6-4.2-10.7-4.2c-9.2,0-16.8,8.2-16.8,18.3
		c0,10.1,7.5,18.3,16.8,18.3c4.1,0,7.8-1.6,10.7-4.2l0,0l0.8,2.1c0.2,0.5,0.7,0.9,1.2,0.9h6.2c0.5,0,0.9-0.4,0.9-0.9V2.3
		C36.7,1.8,36.3,1.4,35.7,1.4z M18.4,44.8c-5,0-9.2-4.1-9.2-9.2c0-5,4.1-9.2,9.2-9.2c5,0,9.1,4.1,9.1,9.2S23.4,44.8,18.4,44.8z"/>
	<path fill="#2e30bd" d="M66,17.4c-4.1,0-7.8,1.6-10.7,4.2V2.3c0-0.5-0.4-0.9-0.9-0.9h-7.3c-0.5,0-0.9,0.4-0.9,0.9v49.6
		c0,0.5,0.4,0.9,0.9,0.9h6.2c0.5,0,1-0.4,1.2-0.9l0.8-2.1l0,0C58.3,52.4,62,54,66,54c9.3,0,16.8-8.2,16.8-18.3
		C82.8,25.6,75.2,17.4,66,17.4z M64.5,44.8c-5,0-9.1-4.1-9.1-9.2c0-5,4.1-9.2,9.1-9.2s9.1,4.1,9.1,9.2
		C73.6,40.7,69.5,44.8,64.5,44.8z"/>
	<path fill="#2e30bd" d="M124,18.6h-6.8c-0.5,0-1,0.4-1.1,0.9l0,0l-0.4,2.1c-2.9-2.6-6.6-4.2-10.7-4.2c-9.3,0-16.8,8.2-16.8,18.3
		c0,10.1,7.5,18.3,16.8,18.3c4.1,0,7.8-1.6,10.7-4.2l0,0l0.8,2.1c0.2,0.5,0.7,0.9,1.2,0.9h6.2c0.5,0,0.9-0.4,0.9-0.9V19.5
		C124.9,19,124.5,18.6,124,18.6z M115.7,35.7c0,5-4.1,9.1-9.1,9.1c-5,0-9.2-4.1-9.2-9.2c0-5,4.1-9.2,9.2-9.2
		C111.6,26.5,115.7,30.6,115.7,35.7L115.7,35.7z"/>
</g>
</svg>
